<?xml version="1.0" standalone="no"?>
<!DOCTYPE svg PUBLIC "-//W3C//DTD SVG 20010904//EN"
 "http://www.w3.org/TR/2001/REC-SVG-20010904/DTD/svg10.dtd">
<svg version="1.0" xmlns="http://www.w3.org/2000/svg"
 width="408.000000pt" height="612.000000pt" viewBox="0 0 408.000000 612.000000"
 preserveAspectRatio="xMidYMid meet">
<metadata>
Created by potrace 1.16, written by Peter Selinger 2001-2019
</metadata>
<g transform="translate(0.000000,612.000000) scale(0.100000,-0.100000)"
fill="#000000" stroke="none">
<path d="M986 5813 c-9 -56 -16 -118 -16 -137 0 -19 -4 -37 -9 -40 -21 -14
-148 -489 -179 -676 -19 -106 -50 -318 -62 -420 -6 -52 -18 -138 -25 -190 -8
-52 -19 -144 -25 -205 -6 -60 -22 -180 -35 -265 -13 -85 -27 -184 -30 -220
-10 -103 -44 -410 -65 -590 -10 -91 -28 -259 -40 -375 -30 -300 -38 -376 -65
-590 -14 -104 -32 -269 -40 -365 -9 -96 -23 -224 -31 -285 -8 -60 -21 -162
-30 -225 -8 -63 -19 -149 -24 -190 -5 -41 -16 -120 -24 -175 -22 -150 -36
-317 -36 -442 l0 -113 63 0 c89 0 486 -60 572 -86 28 -8 86 -20 130 -25 44 -5
101 -12 126 -15 l46 -6 8 57 c3 31 13 80 22 108 8 27 13 61 10 73 -2 13 -1 21
3 19 6 -4 17 47 36 158 4 21 2 37 -4 37 -5 0 -7 12 -5 27 3 20 2 24 -5 14 -7
-9 -8 2 -5 35 7 62 13 69 14 18 1 -21 5 -50 9 -64 6 -17 7 -9 4 25 -3 28 -1
68 5 90 9 38 10 37 6 -20 -3 -42 2 -25 16 55 15 85 18 124 10 148 -6 21 -6 45
1 69 10 36 6 118 -5 129 -3 4 -11 3 -16 -1 -8 -4 -6 -11 4 -21 16 -16 21 -74
7 -74 -21 0 -54 44 -48 64 2 11 9 37 14 56 8 32 9 33 16 13 7 -23 17 -28 29
-16 9 8 -42 55 -53 48 -5 -3 -12 -37 -16 -75 -3 -39 -11 -70 -16 -70 -5 0 -6
-4 -3 -10 3 -5 1 -18 -4 -27 -8 -13 -9 0 -5 50 5 52 4 67 -7 67 -10 0 -10 3
-1 12 15 15 16 38 2 38 -5 0 -10 -8 -10 -17 0 -12 -8 -8 -28 15 -16 18 -34 32
-40 32 -5 0 -12 5 -14 12 -3 9 -6 9 -12 0 -4 -7 -2 -12 3 -12 6 0 11 -7 11
-16 0 -12 -6 -15 -22 -10 -13 3 -31 6 -40 6 -12 0 -18 8 -18 24 0 18 -4 23
-18 19 -24 -6 -50 23 -34 39 8 8 15 8 27 -2 13 -11 19 -11 33 3 10 11 12 17 4
17 -7 0 -12 15 -12 38 0 24 -3 32 -9 24 -7 -11 -9 -11 -14 2 -4 11 -1 16 10
16 12 0 2 13 -27 40 -24 22 -38 40 -31 40 31 0 55 53 28 63 -9 4 -9 7 1 15 7
5 10 16 6 25 -7 20 -9 20 -35 6 -17 -9 -21 -7 -26 9 -3 11 -13 22 -24 25 -15
4 -19 14 -19 50 0 27 5 47 13 51 8 3 6 10 -9 24 -12 10 -24 27 -27 38 -2 10
-5 0 -6 -23 0 -25 -6 -43 -12 -43 -8 0 -10 17 -7 49 4 41 3 47 -9 36 -7 -8
-13 -30 -13 -49 0 -20 -5 -36 -11 -36 -7 0 -10 18 -8 48 3 53 -8 112 -21 112
-5 0 -12 16 -16 36 -4 23 -14 38 -28 44 -19 7 -19 9 -3 15 9 4 24 2 32 -5 8
-6 22 -10 32 -8 16 3 16 5 -4 23 -13 11 -23 25 -23 32 0 6 -4 23 -9 37 -9 22
-12 23 -35 13 -19 -9 -24 -17 -20 -34 3 -11 0 -31 -6 -43 -10 -18 -9 -24 1
-31 11 -6 9 -13 -9 -32 -17 -18 -21 -31 -16 -51 4 -16 2 -26 -5 -26 -6 0 -11
7 -11 15 0 22 -18 18 -31 -6 -8 -15 -8 -24 0 -32 6 -6 11 -25 10 -42 0 -29 -1
-29 -11 -7 -6 12 -15 22 -20 22 -12 0 -10 -18 3 -22 6 -2 9 -15 7 -28 -4 -23
-5 -24 -13 -5 -5 11 -14 24 -22 28 -7 4 -13 15 -13 23 0 8 4 13 8 10 16 -10
31 11 35 49 3 22 2 32 0 22 -2 -9 -8 -17 -13 -17 -5 0 -10 -8 -13 -17 -7 -31
12 193 63 750 28 306 34 397 25 372 -2 -5 -16 -136 -30 -290 -91 -1001 -110
-1175 -110 -979 0 87 -1 89 -22 86 -13 -2 -23 2 -23 7 0 6 14 11 30 11 17 0
30 5 30 11 0 5 -4 8 -9 4 -5 -3 -12 -1 -15 4 -8 12 18 73 27 64 4 -3 8 5 9 18
0 13 2 38 3 54 4 46 -6 89 -16 73 -14 -21 -10 -1 6 39 8 19 15 63 15 97 0 36
4 56 9 48 5 -8 10 17 14 64 4 43 5 80 2 82 -3 3 -5 -9 -5 -26 0 -20 -5 -32
-13 -32 -15 0 -47 -61 -47 -90 0 -11 -15 -52 -34 -92 -19 -39 -33 -75 -30 -80
3 -4 -2 -16 -12 -25 -19 -19 -19 -17 1 57 5 20 4 22 -5 10 -9 -12 -10 -9 -6
15 25 140 36 220 35 252 -1 36 3 80 16 221 4 34 10 60 14 58 4 -3 4 16 0 42
-4 26 -5 50 -3 54 4 6 9 38 19 132 5 40 15 63 15 33 0 -10 8 -17 20 -17 11 0
20 5 20 10 0 6 -7 10 -15 10 -8 0 -15 5 -15 10 0 6 4 10 9 10 5 0 17 3 25 6
14 6 16 -3 10 -75 -6 -72 -4 -81 10 -81 14 0 17 9 15 48 -1 26 1 62 5 80 6 24
4 32 -6 32 -8 0 -9 3 -3 8 12 8 34 110 40 182 l3 45 -8 -40 c-7 -32 -8 -24 -5
37 4 87 16 121 26 73 9 -48 22 92 17 181 -3 45 -1 75 5 77 6 2 7 11 3 23 -6
15 -12 7 -26 -40 -25 -79 -30 -143 -10 -131 6 4 10 -7 9 -27 -1 -31 -1 -32 -9
-8 -7 21 -8 18 -9 -20 -1 -34 -4 -41 -12 -30 -8 12 -9 10 -4 -7 3 -12 1 -24
-5 -28 -11 -7 -13 4 -10 48 1 15 -3 27 -8 27 -5 0 -12 9 -15 20 -3 11 -1 20 4
20 11 0 12 33 1 46 -5 5 -7 32 -4 59 4 40 7 46 13 30 7 -15 8 -12 3 10 -7 35
-8 40 -5 80 1 23 4 26 11 15 13 -21 23 -5 11 18 -13 25 -14 55 -2 48 5 -4 7 3
4 14 -3 11 0 20 6 20 6 0 11 5 11 12 0 10 36 93 61 140 12 23 12 55 -1 63 -6
3 -7 -1 -4 -9 3 -9 1 -16 -5 -16 -6 0 -11 -7 -11 -16 0 -10 -6 -14 -15 -10
-10 3 -15 -1 -15 -13 0 -10 -7 -32 -15 -47 -18 -35 -18 -18 -1 64 14 62 36
106 36 70 0 -9 -5 -20 -10 -23 -5 -3 -9 -14 -9 -23 1 -15 2 -15 6 1 2 9 8 17
13 17 12 0 19 39 8 42 -11 4 8 85 24 102 11 13 10 36 -1 36 -5 0 -11 -6 -14
-12 -2 -7 -2 -3 0 9 2 12 8 34 13 49 9 22 13 24 25 14 13 -11 14 -10 8 6 -6
17 -5 17 10 5 15 -12 17 -10 17 30 -1 41 -2 43 -15 25 -13 -17 -15 -17 -15 -4
0 22 19 33 32 20 6 -6 8 -37 3 -81 -6 -60 -9 -70 -21 -60 -11 9 -14 7 -14 -15
0 -14 5 -26 10 -26 6 0 10 5 10 12 0 9 3 9 12 0 10 -10 10 -17 0 -32 -19 -31
-45 -340 -31 -376 10 -24 11 -12 9 91 -1 52 2 76 8 70 6 -5 12 -19 15 -30 3
-13 5 -10 6 11 0 17 8 37 16 44 14 11 13 14 -1 25 -24 17 -14 160 13 182 12 9
14 16 6 19 -13 6 -1 60 17 78 5 5 10 42 10 80 0 75 7 116 20 116 8 0 5 -213
-3 -227 -3 -5 -2 -15 4 -23 6 -11 9 -8 9 12 0 15 5 30 11 34 8 5 8 9 -1 14 -6
4 -10 22 -8 40 l3 32 44 -40 c25 -23 41 -45 38 -53 -4 -10 -6 -9 -6 4 -2 36
-21 15 -21 -23 0 -22 -4 -40 -10 -40 -5 0 -10 -9 -10 -20 0 -11 -4 -20 -10
-20 -5 0 -10 -9 -10 -20 0 -14 7 -20 23 -20 20 0 22 -5 22 -40 0 -22 3 -40 7
-40 5 0 8 16 8 37 0 36 0 36 20 18 20 -18 21 -18 43 3 14 14 17 22 8 22 -10 0
-10 5 3 25 9 13 16 31 16 40 0 8 5 15 11 15 5 0 7 5 4 10 -12 19 -25 10 -25
-17 0 -43 -11 -19 -16 36 -3 32 -1 51 6 51 5 0 10 5 10 12 0 9 -3 9 -12 0 -22
-22 -28 -12 -28 44 0 41 -5 63 -20 81 -11 14 -20 32 -20 40 0 8 -4 11 -10 8
-6 -4 -10 7 -10 27 0 18 -3 43 -6 56 -11 40 15 23 27 -18 14 -47 34 -55 26
-10 -7 31 9 43 19 15 9 -23 32 -18 37 8 l4 22 8 -22 c7 -23 35 -32 35 -12 0 6
7 9 15 5 8 -3 15 -1 15 4 0 6 -6 10 -12 10 -7 0 -24 12 -37 26 -19 19 -26 22
-33 12 -7 -10 -9 -10 -5 2 5 17 38 14 49 -3 5 -9 10 -9 20 1 9 9 9 12 -3 12
-12 0 -12 2 1 10 9 6 17 5 21 -2 5 -8 12 -6 24 5 20 20 23 20 55 2 19 -11 21
-14 8 -15 -32 0 -15 -80 16 -80 18 0 27 23 15 41 -13 20 -11 29 6 29 9 0 18
-7 22 -16 5 -13 7 -13 15 -2 7 10 11 10 22 -4 7 -10 20 -18 29 -18 9 0 19 -4
22 -10 3 -5 22 -10 41 -10 19 0 46 -7 59 -16 16 -11 34 -14 55 -9 17 4 29 9
26 12 -3 3 1 15 9 25 7 11 11 27 8 34 -8 20 16 45 40 42 15 -2 21 3 22 22 2
29 -11 44 -45 48 -14 1 -31 3 -37 4 -18 2 -16 23 3 43 9 9 14 18 11 21 -9 9
-27 -6 -27 -22 0 -8 -4 -14 -10 -14 -5 0 -10 -9 -10 -20 0 -11 5 -20 12 -20 9
0 9 -3 0 -12 -7 -7 -12 -29 -12 -50 0 -37 -6 -43 -40 -38 -22 3 -22 5 -6 44 8
20 22 36 30 36 9 0 16 5 16 10 0 6 -10 10 -21 10 -20 0 -21 4 -15 40 4 29 3
40 -6 41 -59 5 -100 4 -103 -1 -2 -4 -17 -5 -34 -2 -20 3 -28 8 -24 18 3 8 0
14 -6 14 -6 0 -11 5 -11 10 0 6 11 10 25 10 18 0 32 11 50 40 14 23 36 45 49
50 13 4 26 15 29 24 3 8 26 24 52 36 25 11 45 25 45 30 0 6 8 10 18 10 15 1
15 2 -2 15 -11 8 -17 18 -13 21 4 4 13 2 21 -5 11 -9 20 -6 44 16 31 29 51 73
33 73 -5 0 -15 -8 -20 -17 -6 -11 -11 -13 -11 -5 0 7 -5 10 -10 7 -6 -4 -8
-10 -5 -15 3 -4 -9 -13 -25 -19 -17 -5 -30 -15 -30 -20 0 -6 -9 -11 -20 -11
-11 0 -20 -4 -20 -10 0 -5 6 -10 14 -10 31 0 26 -21 -8 -35 -49 -21 -56 -19
-57 13 l-1 27 -11 -27 c-13 -33 -27 -37 -27 -7 0 28 -19 14 -36 -27 -11 -26
-20 -34 -39 -34 -17 0 -29 -8 -36 -22 -6 -13 -34 -34 -62 -48 -37 -18 -58 -36
-74 -64 -20 -37 -20 -41 -5 -53 15 -11 15 -12 1 -13 -9 0 -35 -18 -58 -40 -23
-22 -44 -40 -46 -40 -3 0 -4 10 -4 23 1 12 -2 31 -6 41 -5 12 -5 17 1 13 5 -3
24 21 41 54 31 57 34 78 7 42 -10 -15 -15 -16 -26 -5 -11 11 -10 14 0 21 8 5
13 10 11 12 -9 16 20 53 59 76 l47 28 -45 7 c-25 3 -65 7 -89 7 -52 1 -49 9
10 22 30 7 44 7 49 -2 12 -18 64 12 68 39 4 23 -12 30 -22 10 -5 -10 -7 -10
-12 0 -5 10 -10 8 -21 -8 -11 -16 -22 -20 -39 -16 -13 4 -42 0 -64 -8 -37 -13
-40 -13 -28 3 7 9 22 24 32 34 19 17 19 17 -2 17 -12 0 -22 5 -22 11 0 6 8 8
19 4 23 -7 51 3 51 19 0 7 21 32 47 56 25 25 54 58 65 75 17 29 46 39 59 22 4
-5 9 7 13 27 5 27 12 36 26 36 11 0 20 6 20 14 0 8 4 16 9 18 5 2 30 47 56
102 34 73 49 96 58 87 8 -8 8 -14 -1 -23 -7 -7 -12 -21 -12 -32 0 -19 3 -17
25 9 19 23 24 26 25 13 0 -10 4 -18 9 -18 5 0 7 8 4 19 -3 10 0 22 6 25 7 4
11 -1 11 -13 0 -24 4 -25 31 -10 11 5 16 15 13 21 -4 7 -3 8 4 4 9 -5 9 -13 1
-27 -9 -19 -9 -19 10 -10 24 13 34 14 27 3 -3 -5 4 -15 15 -22 10 -8 19 -20
19 -27 0 -7 7 -13 15 -13 8 0 15 -7 15 -16 0 -8 14 -20 30 -25 22 -8 30 -17
30 -35 0 -13 12 -38 27 -54 30 -35 63 -40 63 -11 0 11 5 23 10 26 6 4 8 11 4
16 -3 6 -14 0 -25 -12 -10 -12 -20 -19 -20 -16 -1 4 -2 13 -3 20 0 6 -8 12
-16 12 -10 0 -16 11 -17 30 0 17 -2 36 -2 42 -1 7 -16 19 -33 26 -46 19 -58
37 -46 67 7 20 11 22 18 10 7 -11 10 -8 11 15 1 17 1 34 0 39 -1 5 4 6 12 3 8
-3 13 3 14 14 2 21 -13 26 -20 7 -3 -7 -6 -3 -6 9 -1 12 4 25 9 28 6 3 10 1
10 -4 0 -6 3 -10 8 -9 4 1 22 -2 40 -6 31 -7 44 -25 20 -27 -7 0 2 -5 20 -10
18 -5 30 -14 27 -19 -3 -5 -11 -7 -18 -5 -46 14 -77 14 -77 0 0 -8 4 -15 10
-15 5 0 8 -15 5 -35 -2 -19 0 -37 4 -40 11 -6 41 38 41 60 0 8 7 15 16 15 13
0 15 -7 11 -36 -5 -30 -4 -34 8 -24 8 7 15 21 15 31 0 11 5 19 10 19 13 0 12
-16 -3 -68 -7 -24 -20 -48 -28 -53 -10 -8 -7 -8 11 -3 22 6 23 5 11 -10 -12
-14 -12 -21 -1 -41 14 -27 19 -263 5 -284 -3 -7 -10 -25 -15 -41 -6 -22 -5
-28 5 -24 11 4 11 -3 3 -37 -10 -38 -9 -44 10 -60 27 -21 28 -29 2 -29 -11 0
-20 -7 -20 -15 0 -8 4 -15 8 -15 4 0 7 -49 6 -110 -1 -87 2 -110 12 -110 18 0
18 -6 -3 -41 -24 -40 -33 -36 -33 11 0 25 -5 40 -13 40 -26 0 -51 88 -64 225
-3 33 -11 74 -18 90 l-13 30 -3 -30 c-1 -16 -3 -35 -3 -41 -1 -6 -7 -18 -14
-26 -12 -15 -8 -32 28 -153 8 -25 24 -84 33 -120 14 -50 30 -84 39 -79 6 4 6
-2 -1 -15 -9 -16 -9 -20 2 -15 11 4 15 -10 20 -56 6 -73 36 -160 54 -160 14 0
18 -66 5 -86 -4 -7 -23 -19 -43 -27 -31 -13 -40 -24 -58 -73 -26 -67 -21 -105
16 -129 13 -9 27 -14 31 -11 3 3 -1 6 -8 6 -10 0 -9 5 3 18 10 10 17 21 17 25
0 8 67 112 102 158 16 20 28 41 28 47 0 6 4 13 10 17 8 5 44 -91 45 -120 0 -5
6 -14 13 -18 6 -4 12 -16 12 -26 0 -23 20 -62 43 -86 12 -11 15 -24 11 -38 -6
-19 -5 -20 10 -8 14 12 18 8 35 -30 l20 -44 -2 37 c-1 20 -5 34 -9 31 -5 -2
-8 5 -8 16 0 11 -6 24 -14 28 -17 10 -72 117 -82 158 -4 17 -20 56 -36 88 -16
32 -26 63 -22 68 4 8 9 7 15 -2 7 -11 9 -10 9 4 0 10 5 15 10 12 6 -3 10 3 10
13 0 11 9 39 19 63 11 24 23 69 27 99 5 40 9 49 15 35 4 -11 8 -15 8 -8 1 6
10 9 23 5 14 -3 19 -2 14 6 -4 7 -11 12 -16 12 -6 0 -18 7 -29 16 -19 16 -18
18 16 53 27 28 36 32 43 21 5 -8 12 -12 15 -8 8 8 -13 49 -34 65 -13 11 -14
14 -2 22 17 11 4 34 -15 27 -27 -11 -26 24 2 61 28 37 45 32 24 -7 -11 -20
-10 -21 8 -11 11 6 27 23 34 38 25 49 42 76 66 102 12 14 22 33 22 41 0 8 12
33 25 55 14 22 25 50 25 63 0 12 4 22 9 22 14 0 20 -53 9 -68 -8 -9 -8 -16 0
-24 19 -19 43 20 37 57 -3 17 -8 67 -12 112 -3 46 -9 80 -14 77 -5 -3 -9 -20
-9 -37 0 -56 -12 -107 -25 -107 -7 0 -27 -13 -44 -29 -16 -15 -33 -26 -36 -23
-3 3 -5 -6 -5 -19 0 -15 -3 -19 -8 -12 -5 8 -12 3 -20 -16 -8 -19 -22 -31 -40
-34 -39 -8 -41 1 -6 31 17 15 40 48 53 75 13 26 27 47 32 47 5 0 9 9 9 19 0
11 3 21 8 23 12 5 85 160 84 177 0 9 1 30 4 48 4 25 9 31 22 26 14 -5 15 -3 5
8 -17 18 -16 39 2 39 8 0 12 6 9 14 -3 9 3 17 15 21 12 3 28 19 36 35 21 40
30 43 31 8 1 -20 -2 -25 -7 -16 -7 10 -9 9 -9 -4 0 -22 4 -33 10 -31 3 0 29 4
57 8 l53 6 -35 -37 c-19 -20 -35 -43 -35 -50 0 -8 -4 -14 -9 -14 -5 0 -13 -9
-16 -20 -4 -11 -11 -18 -16 -15 -5 4 -9 1 -9 -5 0 -7 -11 -21 -24 -31 -16 -12
-27 -34 -31 -62 -4 -23 -12 -50 -17 -60 -5 -9 -6 -22 -3 -28 9 -14 33 8 49 45
7 17 32 53 55 81 22 27 41 57 41 65 0 9 5 21 12 28 7 7 9 12 5 12 -4 0 4 12
18 28 15 15 38 50 52 77 26 49 26 50 34 23 15 -57 -10 -188 -53 -275 -23 -46
-31 -74 -30 -109 3 -58 -5 -84 -24 -84 -8 0 -14 -10 -14 -25 0 -14 -30 -73
-66 -132 -70 -114 -93 -183 -59 -183 13 0 16 6 12 20 -5 20 23 48 55 54 34 7
58 25 120 90 40 41 68 80 68 92 0 30 60 144 82 155 10 5 18 18 18 27 0 10 5
23 11 29 14 14 8 58 -8 58 -6 0 -15 3 -19 8 -4 4 -16 7 -27 7 -27 0 -15 23 14
25 13 1 31 5 39 8 11 5 26 -11 53 -53 36 -56 57 -74 57 -50 0 6 -7 22 -16 35
-9 14 -12 25 -6 25 6 0 15 -8 21 -17 14 -26 26 -7 15 25 -6 16 -18 28 -31 30
-17 2 -25 14 -33 43 -6 22 -8 44 -5 50 4 5 -4 18 -17 29 -19 16 -20 19 -6 20
17 0 68 -58 68 -77 0 -5 11 -19 24 -30 13 -11 26 -27 28 -34 4 -11 10 -10 32
5 21 13 31 15 40 6 15 -15 -28 -51 -52 -43 -13 5 -14 3 -5 -7 15 -17 63 -5 63
16 0 14 3 14 15 4 18 -15 20 -37 3 -43 -7 -2 -9 -8 -5 -13 4 -5 12 -2 17 6 5
8 12 11 16 7 4 -3 1 -14 -7 -23 -12 -15 -12 -16 8 -10 27 9 42 -13 20 -29 -10
-7 -17 -20 -17 -30 0 -16 2 -16 18 3 l18 20 42 -42 c37 -38 58 -77 33 -61 -5
3 -13 0 -16 -6 -11 -17 3 -23 21 -9 13 12 17 11 24 -1 7 -9 5 -15 -5 -17 -30
-7 -15 -24 15 -18 17 3 30 1 30 -4 0 -6 -9 -10 -20 -10 -11 0 -20 -4 -20 -10
0 -5 -4 -10 -10 -10 -5 0 -10 7 -10 15 0 8 -4 15 -9 15 -4 0 -20 11 -35 25
-15 14 -35 25 -45 25 -10 0 -25 9 -32 20 -12 18 -20 20 -64 14 l-50 -7 30 -13
c16 -6 36 -9 44 -6 8 3 24 -7 39 -24 15 -19 26 -25 29 -16 6 17 16 15 42 -7
l21 -19 -42 -17 c-45 -19 -167 -23 -177 -6 -9 12 -51 -6 -51 -22 0 -20 12 -28
24 -17 17 13 136 -19 136 -36 0 -21 18 -17 43 9 12 13 36 32 52 44 29 20 30
20 49 2 20 -19 46 -25 46 -11 0 4 -5 13 -12 20 -9 9 -8 12 4 12 9 0 19 -6 21
-12 3 -8 6 -6 6 5 1 15 4 15 21 5 11 -7 20 -21 20 -31 0 -11 5 -16 13 -12 6 4
3 -1 -7 -9 -15 -12 -22 -13 -27 -4 -4 7 -5 16 -3 20 9 13 -4 9 -20 -8 -20 -20
-21 -48 -2 -41 8 3 17 1 19 -6 3 -9 8 -8 20 2 10 7 18 10 18 5 1 -5 3 -18 4
-29 1 -11 9 -56 18 -100 9 -44 19 -100 21 -125 3 -25 18 -137 35 -250 16 -113
42 -294 58 -404 15 -109 29 -194 31 -188 3 11 -16 162 -64 492 -15 102 -27
217 -27 255 -1 49 -3 61 -8 40 l-7 -30 -1 28 c-1 21 5 30 18 34 11 3 22 14 25
25 4 16 2 18 -7 9 -6 -6 -19 -11 -28 -11 -25 0 -25 107 0 113 9 3 3 6 -14 7
-26 1 -27 3 -10 10 17 7 17 9 3 9 -20 1 -25 21 -5 21 7 0 8 3 2 8 -5 4 -11 22
-12 41 -1 18 -8 40 -15 49 -7 9 -8 13 -2 9 8 -4 10 5 7 28 -2 20 0 34 4 33 5
0 16 2 27 7 11 5 21 3 26 -5 4 -7 13 -9 19 -6 7 4 11 -1 11 -13 0 -10 -6 -21
-12 -24 -16 -5 22 -45 37 -40 17 5 16 -109 -1 -134 -9 -14 -10 -23 -4 -23 7 0
9 -8 5 -20 -4 -14 -2 -20 8 -20 23 0 39 24 25 38 -9 9 -8 12 4 12 9 0 19 -6
21 -12 3 -7 6 1 6 17 0 17 -3 25 -7 18 -4 -6 -8 25 -8 69 -1 44 -6 84 -12 90
-6 6 -8 16 -6 23 6 14 -31 238 -52 315 -8 30 -17 66 -19 80 -8 54 -56 230 -91
330 -20 59 -39 140 -44 185 -9 79 -29 218 -33 221 -1 1 -173 -2 -382 -7 -363
-8 -529 -9 -822 -6 -83 1 -133 -2 -133 -8 0 -6 -3 -5 -8 1 -7 11 -247 20 -659
26 l-171 3 -16 -102z m1386 -175 c-5 -21 -4 -22 11 -9 9 7 17 10 18 5 1 -5 2
-25 4 -44 3 -32 2 -32 -9 -12 -14 26 -26 19 -26 -15 0 -13 -7 -26 -15 -29 -20
-8 -19 -34 1 -34 8 0 13 -4 9 -9 -3 -5 -1 -13 5 -16 6 -4 15 7 21 24 11 32 29
42 29 17 0 -8 3 -21 6 -29 4 -11 -7 -18 -43 -26 -42 -9 -293 -41 -327 -41 -7
0 -13 -6 -13 -13 0 -9 10 -12 31 -9 27 4 29 2 16 -9 -33 -30 -63 -69 -53 -69
16 0 108 79 106 90 -2 6 9 10 23 10 29 0 28 -18 -1 -34 -24 -13 -55 -46 -55
-58 0 -14 18 -9 24 7 5 13 9 13 26 3 27 -17 25 -26 -5 -20 -21 4 -27 -1 -36
-27 -6 -17 -20 -36 -30 -41 -17 -10 -18 -8 -9 15 24 63 4 56 -30 -10 -18 -36
-18 -73 1 -44 5 8 9 9 9 3 0 -6 -7 -17 -15 -24 -21 -17 -19 -29 5 -23 11 3 24
20 30 39 12 36 19 41 38 22 7 -7 8 -17 1 -30 -8 -14 -6 -18 6 -18 9 0 13 -4
10 -10 -3 -5 -1 -10 6 -10 8 0 9 -3 0 -13 -6 -8 -8 -17 -4 -20 13 -14 22 -6
28 26 7 38 44 92 45 65 0 -9 -4 -28 -9 -41 -8 -20 -6 -27 6 -31 14 -6 14 -8 1
-24 -28 -32 -66 -121 -53 -126 6 -2 12 1 12 7 0 7 18 46 40 87 29 54 46 76 62
77 21 3 21 2 5 -30 -9 -17 -22 -35 -28 -39 -6 -4 -7 -10 -4 -14 11 -10 -21
-66 -33 -58 -6 3 -9 0 -8 -7 8 -39 -56 -120 -81 -104 -13 8 -30 -10 -59 -65
-14 -25 -28 -47 -32 -50 -3 -3 -9 -14 -12 -25 -4 -11 -3 115 0 280 4 165 7
324 7 352 1 29 6 52 11 52 6 -1 9 -4 8 -8 -1 -4 14 -5 33 -3 18 2 31 8 28 13
-3 5 4 9 16 9 12 0 18 -4 15 -10 -3 -5 -1 -10 4 -10 6 0 11 7 11 15 0 9 6 12
17 8 10 -4 14 -2 10 4 -9 14 30 53 53 53 29 0 24 -13 -10 -28 -17 -8 -27 -18
-24 -24 4 -6 10 -6 17 1 6 6 20 11 32 11 11 0 37 16 58 36 40 39 43 53 8 34
-12 -6 -51 -12 -89 -14 -62 -2 -67 -4 -64 -23 2 -12 -2 -25 -9 -29 -8 -5 -9
-3 -4 6 5 8 1 18 -10 26 -10 8 -16 17 -12 20 11 11 -26 33 -54 34 -35 0 -52
-23 -47 -60 3 -17 1 -33 -4 -36 -13 -8 -9 131 4 144 7 7 26 12 43 11 24 0 26
-2 11 -8 -15 -6 -16 -9 -5 -13 15 -5 23 -5 109 11 45 9 57 8 70 -5 13 -13 13
-16 0 -24 -8 -5 -23 -10 -32 -10 -10 0 -18 -5 -18 -11 0 -7 10 -9 28 -5 15 4
34 8 42 10 8 2 23 6 33 10 9 3 24 8 33 11 14 4 14 8 3 21 -11 14 -13 14 -21 0
-11 -20 -25 -20 -45 -1 -14 14 -13 15 13 10 23 -5 26 -4 14 5 -13 11 -13 11 0
7 8 -2 24 -1 35 4 35 13 43 10 37 -13z m-1127 -99 c-4 -13 -2 -19 9 -19 9 0
20 16 27 40 11 36 39 57 39 29 0 -6 7 -8 16 -5 11 4 14 1 12 -11 -4 -22 -28
-29 -28 -9 0 25 -17 19 -22 -8 -4 -17 -1 -23 9 -19 7 3 13 0 13 -6 0 -7 -8
-14 -17 -18 -10 -3 -28 -15 -40 -26 -13 -12 -37 -20 -62 -21 -22 0 -35 -3 -30
-7 6 -4 4 -9 -6 -13 -22 -8 -22 -8 -22 9 0 8 15 19 34 26 30 9 47 39 23 39
-14 0 -84 -33 -91 -44 -4 -5 -11 -6 -17 -2 -6 3 -13 0 -15 -6 -4 -10 -6 -10
-6 0 -1 7 6 15 14 18 8 4 15 11 15 16 0 6 -15 1 -34 -10 -33 -20 -46 -19 -46
1 0 6 3 7 7 4 3 -4 22 5 40 19 33 25 35 25 48 8 11 -15 16 -17 26 -6 11 10 10
12 -3 12 -24 0 -29 35 -7 48 25 16 29 15 29 -5 1 -16 2 -15 12 2 19 34 32 36
56 9 14 -17 21 -33 17 -45z m1769 24 c-7 -36 -10 -38 -29 -23 -13 10 -15 9
-15 -8 0 -15 6 -20 25 -18 14 0 28 8 31 16 5 12 8 11 14 -5 4 -11 5 -28 2 -37
-5 -22 -32 -24 -32 -3 0 19 -8 19 -28 -2 -16 -16 -17 -15 -20 9 -3 25 -6 26
-40 21 -20 -3 -39 -9 -42 -13 -3 -3 -33 -5 -68 -4 -65 2 -85 -7 -55 -25 10 -6
13 -11 6 -11 -13 0 -26 17 -29 38 -3 15 11 22 48 26 13 1 35 10 48 19 13 9 27
14 32 11 5 -3 15 -1 22 5 17 15 96 23 96 10 0 -5 5 -9 10 -9 6 0 10 7 10 15 0
8 4 15 9 15 5 0 7 -12 5 -27z m-1917 -127 c1 -1 -3 -20 -10 -42 -13 -44 -54
-97 -108 -141 -27 -22 -34 -36 -35 -63 -2 -80 -4 -90 -20 -90 -13 0 -14 3 -4
15 6 8 9 19 5 25 -3 5 -1 10 6 10 8 0 8 4 2 13 -5 6 -9 30 -7 52 1 22 3 48 3
57 2 28 52 80 72 75 22 -6 32 6 46 56 10 33 9 38 -3 33 -9 -4 -12 -2 -8 5 5 8
51 5 61 -5z m905 -313 c-1 -120 -7 -238 -12 -263 -16 -79 -23 -161 -25 -300
-3 -156 -21 -245 -60 -296 -24 -31 -26 -41 -21 -87 7 -57 -6 -94 -23 -67 -13
20 -25 133 -18 181 3 22 1 37 -4 33 -5 -3 -9 0 -9 5 0 6 4 11 8 11 10 0 35 50
50 100 6 19 16 89 22 155 13 151 20 207 27 218 2 4 -1 15 -9 24 -7 9 -8 14 -2
10 7 -4 15 1 19 10 3 10 1 19 -4 21 -6 2 -11 13 -10 25 0 21 1 21 10 2 7 -16
8 -14 4 10 -11 71 -7 255 6 255 6 0 9 7 6 15 -4 8 -2 17 4 21 6 3 8 12 5 20
-3 8 -2 14 3 14 5 0 11 19 15 42 6 37 13 58 19 58 2 0 1 -98 -1 -217z m857
160 c3 -2 -4 -10 -15 -19 -17 -14 -18 -15 -1 -10 10 3 23 6 29 6 6 0 8 7 4 15
-4 12 3 14 39 12 26 -2 45 2 45 8 0 5 7 2 15 -9 7 -10 19 -15 25 -11 6 4 16 2
23 -3 7 -5 27 -13 45 -17 34 -7 52 -30 52 -64 0 -12 3 -21 8 -21 4 0 16 -17
26 -37 10 -21 22 -46 27 -55 5 -10 9 -26 9 -36 0 -11 7 -33 16 -51 9 -18 14
-43 11 -57 -6 -33 1 -30 16 6 l13 29 11 -29 c6 -17 7 -30 2 -30 -5 0 -9 8 -9
18 -1 29 -17 -7 -25 -56 -6 -38 -14 -50 -18 -25 0 4 -10 15 -20 24 -22 17 -31
92 -16 121 12 22 -7 34 -25 15 -9 -9 -11 -19 -5 -28 12 -19 12 -59 0 -59 -5 0
-13 9 -16 20 -3 11 -10 20 -14 20 -4 0 -13 11 -19 25 -6 14 -8 25 -3 25 4 0
14 11 21 24 7 14 21 26 32 28 10 2 17 8 16 13 -2 6 -33 9 -75 7 -70 -3 -72 -3
-79 22 -3 14 -4 33 0 41 3 8 1 15 -4 15 -6 0 -10 -4 -10 -10 0 -25 -27 -6 -45
33 -29 63 -48 79 -80 67 -45 -17 -84 17 -53 48 9 9 15 9 27 0 9 -7 18 -14 20
-15z m-1810 -4215 c0 6 6 12 12 12 7 0 8 -14 4 -40 -4 -26 -3 -40 4 -40 6 0
11 7 11 15 0 8 5 15 10 15 6 0 10 -17 10 -39 0 -36 -2 -38 -30 -37 -16 1 -30
6 -30 11 0 11 -46 35 -67 35 -7 0 -13 -6 -14 -12 0 -7 -5 1 -10 17 -15 50 5
92 49 102 36 9 37 8 43 -22 4 -16 7 -24 8 -17z"/>
<path d="M1421 5257 c-11 -25 -30 -48 -47 -57 -16 -8 -31 -18 -34 -21 -3 -4
-16 -21 -30 -39 -14 -18 -31 -39 -38 -47 -25 -25 2 -13 30 14 15 15 28 21 28
14 0 -15 -11 -26 -62 -65 -44 -33 -55 -68 -13 -40 15 10 25 12 25 5 0 -7 13
-4 36 6 21 11 38 14 42 8 4 -6 14 -10 22 -10 12 0 15 -11 13 -50 l-2 -50 14
40 c7 22 14 49 14 60 1 11 12 33 26 49 23 27 29 40 27 57 -1 4 14 17 33 30 36
25 42 42 25 69 -7 11 -10 11 -10 2 0 -7 -5 -10 -11 -7 -6 4 -21 -3 -34 -15
-30 -28 -40 -11 -20 36 19 46 19 54 0 54 -9 0 -24 -19 -34 -43z"/>
<path d="M3541 2410 c-2 -55 54 -564 98 -890 11 -80 25 -194 31 -255 6 -60 25
-230 41 -376 29 -270 33 -316 24 -307 -4 4 -13 49 -49 258 -4 19 -6 56 -6 82
1 25 -4 49 -10 53 -5 3 -10 28 -10 56 0 37 -4 49 -15 49 -9 0 -15 9 -15 23 -1
21 -1 21 -12 3 -8 -15 -8 -21 0 -24 15 -5 16 -67 1 -93 -6 -12 -7 -28 -3 -37
4 -9 9 -30 11 -45 1 -15 8 -37 13 -48 9 -16 7 -19 -15 -19 -20 0 -25 -5 -25
-25 0 -14 5 -25 10 -25 6 0 10 -7 10 -15 0 -8 5 -15 10 -15 38 0 67 -89 38
-118 -9 -9 -9 -15 0 -24 12 -12 17 -90 6 -100 -3 -3 -14 -4 -25 -1 -15 4 -19
14 -19 44 0 28 -4 39 -15 39 -10 0 -15 10 -15 27 0 22 -2 25 -12 14 -8 -7 -14
-46 -14 -104 -2 -126 -1 -119 -25 -112 -16 5 -20 3 -17 -6 6 -16 49 -13 60 5
5 7 8 6 8 -4 1 -12 3 -12 14 3 22 28 29 20 21 -29 -4 -32 -3 -44 4 -39 6 3 11
3 12 -2 0 -4 2 -16 4 -25 4 -23 -53 -44 -61 -23 -3 8 -3 19 1 25 3 5 -1 10 -9
10 -10 0 -16 -9 -16 -23 0 -22 -5 -25 -87 -35 -52 -6 -89 -7 -91 -1 -2 5 -10
3 -17 -5 -9 -8 -32 -12 -67 -10 -29 1 -55 -1 -58 -5 -8 -11 -140 -34 -201 -35
-47 -1 -55 -4 -51 -18 3 -12 9 -14 21 -8 15 8 247 41 320 45 66 4 156 16 196
25 22 6 87 14 144 19 68 5 106 13 112 22 12 20 2 24 -16 5 -26 -26 -45 -20
-45 14 0 24 4 30 23 31 21 0 21 1 -3 11 -24 10 -24 11 -4 17 15 4 21 14 20 33
-1 14 2 24 6 22 4 -3 8 -17 8 -31 0 -15 3 -24 6 -21 3 4 -6 75 -20 160 -14 84
-30 198 -35 253 -38 370 -68 631 -91 792 -30 213 -47 359 -70 593 -21 221 -27
263 -29 220z"/>
<path d="M3105 689 c-11 -4 -15 -8 -9 -8 6 -1 19 -19 30 -41 10 -22 22 -40 26
-40 3 0 9 -13 13 -30 4 -16 12 -30 19 -30 6 0 18 -16 25 -35 8 -23 23 -40 45
-50 28 -14 32 -19 28 -47 -3 -21 -1 -29 7 -24 6 4 9 12 6 17 -4 5 1 9 10 9 9
0 13 -5 10 -10 -3 -6 2 -13 12 -17 10 -4 21 -11 25 -17 4 -6 8 -1 8 12 0 12
-5 22 -11 22 -6 0 -9 6 -6 13 2 6 -11 26 -30 44 -35 34 -41 48 -20 56 6 3 -3
6 -21 6 -29 1 -31 3 -20 21 7 10 8 23 4 27 -5 4 -11 2 -13 -4 -7 -20 -23 -15
-23 6 0 10 -7 21 -15 25 -8 3 -15 11 -15 19 0 24 -25 66 -45 75 -11 5 -29 6
-40 1z"/>
<path d="M2940 654 c0 -16 9 -74 19 -129 11 -54 18 -102 15 -106 -2 -4 3 -20
11 -35 14 -27 15 -27 15 -6 0 12 6 22 14 22 8 0 21 3 30 6 9 3 16 1 16 -5 0
-6 -7 -11 -15 -11 -8 0 -15 -5 -15 -11 0 -6 8 -8 18 -5 27 9 81 -22 88 -50 7
-27 -2 -58 -14 -50 -5 3 -9 -1 -9 -8 0 -10 6 -10 24 -2 20 9 24 16 19 43 -6
38 -1 44 29 33 19 -7 24 -5 29 13 3 12 6 25 6 28 0 3 -22 4 -50 1 -31 -3 -50
-1 -50 6 0 6 6 12 12 14 15 5 -13 38 -32 38 -8 0 -9 10 -5 29 4 19 1 33 -8 42
-33 32 -59 50 -64 45 -8 -8 8 -47 17 -41 10 6 50 -24 50 -37 0 -5 -7 -8 -15
-8 -8 0 -15 7 -15 15 0 8 -4 15 -10 15 -15 0 -12 -38 3 -43 9 -3 9 -7 -2 -20
-7 -9 -17 -14 -22 -11 -5 3 -9 1 -9 -4 0 -13 -30 -11 -32 2 0 6 -2 23 -3 38
-1 15 -8 47 -15 73 -7 25 -11 47 -9 50 3 2 16 5 31 7 46 6 46 21 1 16 -41 -3
-43 -2 -43 24 0 24 3 26 31 23 18 -3 39 0 48 5 13 7 10 9 -14 10 -16 0 -40 3
-52 6 -20 6 -23 3 -23 -22z"/>
</g>
</svg>
